<?xml version="1.0" standalone="no"?>
<!DOCTYPE svg PUBLIC "-//W3C//DTD SVG 20010904//EN"
 "http://www.w3.org/TR/2001/REC-SVG-20010904/DTD/svg10.dtd">
<svg version="1.0" xmlns="http://www.w3.org/2000/svg"
 width="576.000000pt" height="576.000000pt" viewBox="0 0 576.000000 576.000000"
 preserveAspectRatio="xMidYMid meet">
<metadata>
Created by potrace 1.14, written by Peter Selinger 2001-2017
</metadata>
<g transform="translate(0.000000,576.000000) scale(0.100000,-0.100000)"
fill="#000000" stroke="none">
<path d="M4575 5666 c-66 -32 -94 -78 -90 -144 5 -83 72 -143 165 -148 261
-16 435 -87 581 -237 41 -42 99 -120 99 -132 0 -4 8 -19 19 -33 17 -24 48
-103 56 -142 2 -8 8 -34 14 -56 6 -23 13 -75 15 -117 5 -95 26 -140 81 -172
69 -41 153 -31 202 25 31 35 40 66 37 135 -6 202 -65 386 -180 562 -45 68
-220 245 -267 269 -17 9 -34 20 -37 23 -14 17 -187 102 -222 110 -4 1 -27 9
-50 17 -121 43 -368 67 -423 40z"/>
<path d="M2150 5436 c-117 -31 -227 -136 -245 -234 -3 -17 -14 -46 -24 -64
-10 -18 -24 -49 -30 -68 -12 -38 -20 -130 -11 -130 3 0 6 -16 7 -35 1 -19 8
-49 17 -65 21 -44 4 -28 -38 32 -85 123 -104 149 -137 178 -67 60 -126 84
-209 85 -81 0 -119 -12 -190 -58 -71 -47 -108 -94 -130 -162 -7 -22 -26 -60
-43 -84 -80 -118 -65 -250 46 -396 44 -58 55 -85 21 -51 -42 43 -97 61 -184
61 -74 0 -93 -4 -143 -29 -93 -46 -169 -133 -182 -206 -3 -15 -16 -51 -30 -81
-22 -49 -35 -112 -37 -179 -1 -36 28 -129 54 -172 32 -53 197 -288 222 -317
20 -23 19 -23 -28 4 -120 69 -235 61 -357 -25 -148 -106 -167 -268 -51 -438
25 -37 49 -68 54 -70 4 -2 8 -9 8 -14 0 -6 7 -18 15 -27 9 -9 79 -106 157
-216 78 -110 148 -206 155 -213 6 -6 15 -21 18 -32 3 -11 10 -20 15 -20 5 0
15 -11 22 -24 14 -26 98 -148 107 -156 3 -3 22 -27 40 -55 19 -27 37 -52 40
-55 4 -3 11 -13 16 -22 10 -16 274 -388 298 -418 7 -9 28 -38 47 -65 19 -28
38 -54 43 -60 4 -5 68 -95 142 -200 74 -104 138 -194 142 -200 5 -5 44 -59 87
-120 121 -169 228 -286 357 -391 41 -32 76 -62 77 -66 2 -5 8 -8 13 -8 9 0 66
-37 79 -50 25 -27 273 -153 380 -193 119 -45 285 -90 371 -101 19 -3 48 -7 64
-10 80 -13 325 -26 325 -16 0 3 33 5 73 6 70 1 146 8 197 19 13 2 40 7 60 10
19 3 60 12 90 21 30 8 64 17 74 19 117 27 361 135 503 224 154 97 367 286 474
421 69 86 160 234 213 344 60 125 125 306 131 368 1 9 5 24 9 33 3 10 9 38 12
63 3 25 7 49 10 53 7 12 18 179 18 274 -1 87 -9 204 -19 255 -28 145 -41 198
-66 275 -16 50 -34 99 -39 110 -25 55 -69 156 -68 158 0 1 -14 26 -31 55 -17
29 -31 55 -31 57 0 2 -22 51 -50 110 -28 59 -50 108 -50 110 0 1 -8 20 -17 41
-9 22 -17 41 -18 44 -2 5 -8 21 -32 80 -24 59 -104 272 -119 320 -8 25 -19 54
-24 65 -5 11 -41 112 -81 225 -77 221 -84 242 -148 430 -75 221 -125 296 -228
345 -35 17 -161 24 -203 12 -118 -33 -202 -104 -231 -194 -15 -48 -17 -135 -5
-193 3 -14 10 -47 16 -75 6 -27 13 -61 16 -75 3 -14 10 -43 14 -65 4 -22 11
-51 14 -65 3 -14 8 -38 11 -55 2 -16 9 -48 14 -70 6 -22 13 -56 16 -75 9 -46
13 -65 15 -65 1 0 3 -13 5 -30 3 -16 14 -73 25 -125 12 -52 24 -108 26 -125 3
-16 9 -46 14 -65 5 -19 12 -50 15 -68 3 -18 12 -60 19 -93 14 -60 14 -60 -12
-84 -15 -14 -32 -25 -39 -25 -7 0 -13 -3 -13 -7 0 -5 -11 -16 -24 -25 -24 -17
-24 -17 -76 55 -29 40 -66 89 -81 109 -16 20 -29 41 -29 47 0 5 -4 11 -8 13
-4 2 -42 50 -82 108 -79 110 -132 183 -156 213 -8 9 -14 21 -14 26 0 5 -3 11
-8 13 -4 2 -34 41 -66 88 -33 47 -62 87 -65 90 -3 3 -10 12 -16 22 -5 9 -41
60 -80 113 -38 54 -74 105 -80 114 -5 9 -12 18 -15 21 -8 7 -172 237 -185 258
-5 9 -12 19 -16 22 -3 3 -21 28 -40 55 -18 28 -37 52 -41 53 -5 2 -8 8 -8 13
0 5 -7 17 -15 26 -8 10 -87 119 -175 243 -88 124 -164 230 -168 236 -5 6 -31
42 -58 80 -26 38 -53 74 -58 81 -6 6 -22 27 -35 45 -75 104 -213 155 -331 124z"/>
<path d="M3781 5366 c-79 -29 -120 -131 -82 -204 35 -67 64 -82 166 -88 99 -6
209 -23 285 -44 83 -23 228 -79 235 -91 4 -5 13 -9 21 -9 9 0 68 -35 132 -77
329 -217 548 -559 578 -902 2 -31 7 -80 9 -110 8 -86 53 -133 143 -148 68 -12
159 50 169 115 10 64 -1 232 -22 332 -3 14 -7 36 -10 50 -4 20 -33 126 -49
175 -16 51 -67 165 -103 230 -36 66 -99 163 -112 175 -4 3 -18 21 -32 40 -44
59 -203 215 -251 245 -8 6 -43 29 -76 52 -123 87 -398 206 -522 227 -19 3 -57
10 -85 16 -115 25 -347 34 -394 16z"/>
<path d="M445 2150 c-46 -10 -72 -27 -102 -67 -26 -34 -28 -42 -27 -127 2
-156 19 -269 68 -457 12 -45 90 -230 116 -274 16 -27 37 -63 46 -80 53 -94
212 -272 309 -345 22 -16 45 -34 52 -39 52 -44 194 -123 290 -161 43 -18 87
-36 98 -40 20 -9 45 -16 82 -25 10 -3 54 -14 98 -25 44 -11 98 -22 120 -25 22
-3 51 -7 65 -10 14 -3 84 -8 156 -11 112 -6 136 -4 168 11 83 40 118 133 77
210 -33 62 -59 74 -171 81 -76 5 -170 19 -247 38 -183 45 -414 175 -568 318
-22 20 -49 45 -60 55 -41 36 -149 169 -192 235 -90 139 -158 311 -178 448 -3
19 -8 69 -10 110 -4 70 -16 111 -40 135 -38 38 -99 57 -150 45z"/>
<path d="M105 1375 c-22 -8 -50 -27 -63 -42 -12 -15 -27 -33 -32 -40 -21 -26
-1 -244 34 -373 21 -77 84 -209 141 -295 56 -84 187 -213 275 -270 41 -27 77
-50 80 -50 3 -1 24 -11 47 -23 44 -23 137 -61 163 -67 8 -2 51 -13 95 -24 74
-19 210 -34 280 -31 91 3 163 83 151 168 -3 25 -11 51 -17 58 -6 8 -8 14 -3
14 5 0 -12 14 -38 31 -40 26 -60 32 -120 35 -142 8 -289 38 -325 67 -7 5 -13
7 -13 4 0 -4 -26 8 -57 25 -226 122 -359 333 -378 597 -8 106 -13 130 -34 160
-43 59 -116 81 -186 56z"/>
</g>
</svg>
