<svg width="36" height="29" viewBox="0 0 36 29" fill="none" xmlns="http://www.w3.org/2000/svg">
<path d="M29.896 23.667C29.899 23.95 29.826 24.32 29.75 24.625C29.219 26.77 26.861 29.177 23.542 28.958C20.534 28.76 18.084 27.316 18.084 25.291C18.084 23.266 20.528 21.624 23.542 21.624C26.556 21.624 29.877 21.642 29.896 23.667V23.667Z" fill="#EA596E"/>
<path d="M23.542 21.964C21.923 21.964 18.228 22.412 17.38 22.412C15.882 22.412 14.667 23.352 14.667 24.512C14.667 25.07 14.953 25.574 15.411 25.95C15.411 25.95 16.417 26.959 18.229 26.475C19.022 26.263 20.312 24.689 22.583 24.439C23.714 24.314 25.833 25.189 29.557 25.21C29.717 24.866 29.75 24.627 29.75 24.627C29.75 22.6 26.556 21.964 23.542 21.964Z" fill="#DD2E44"/>
<path d="M29.75 24.625C29.75 24.625 31.934 24.182 33.292 22.396C34.875 20.313 34.667 18.084 34.667 18.084C36.271 15.084 34.167 12.271 34.167 12.271C33.958 9.104 32 7.792 32 7.792C30.729 4.771 27.917 3.959 27.917 3.959C25.709 1.376 21.792 1.459 21.792 1.459C21.792 1.459 18.122 0.114 13.084 1.626C12.251 1.876 9.459 2.459 7.417 3.709C0.981 7.649 0.494 13.793 0.584 14.792C1.083 20.375 5 21.375 7.5 21.958C8.083 23.541 10.229 26.458 14.083 25.375C18.833 24.542 20.833 23.125 22 23.125C23.167 23.125 26.417 24.375 29.75 24.625Z" fill="#F4ABBA"/>
<path d="M17.737 15.648C20.065 14.393 21.327 14.51 22.441 14.611C22.795 14.643 23.13 14.668 23.469 14.666C25.453 14.621 27.06 13.785 27.771 12.976C27.953 12.768 27.932 12.453 27.725 12.27C27.519 12.088 27.204 12.107 27.019 12.315C26.471 12.939 25.12 13.628 23.446 13.666C23.146 13.675 22.845 13.645 22.533 13.616C21.338 13.505 19.854 13.369 17.262 14.768C16.597 15.127 15.685 15.26 14.697 15.36C12.5 12.189 13.822 9.427 14.2 8.769C14.237 8.771 14.273 8.783 14.311 8.783C14.711 8.783 15.113 8.685 15.477 8.479C15.717 8.343 15.802 8.038 15.666 7.798C15.53 7.558 15.225 7.473 14.985 7.609C14.345 7.971 13.503 7.762 13.105 7.142C12.956 6.909 12.647 6.841 12.415 6.991C12.183 7.14 12.115 7.449 12.264 7.681C12.501 8.052 12.835 8.331 13.212 8.518C12.691 9.576 11.702 12.358 13.584 15.469C12.26 15.599 10.934 15.786 9.896 16.455C9.226 16.887 8.541 17.519 8.018 18.246C7.389 18.138 5.086 17.571 4.684 15.015C4.934 14.821 5.136 14.565 5.261 14.249C5.363 13.992 5.237 13.702 4.98 13.6C4.723 13.498 4.433 13.624 4.331 13.881C4.242 14.106 4.081 14.27 3.877 14.342C3.675 14.414 3.446 14.39 3.234 14.272C2.991 14.137 2.688 14.226 2.554 14.466C2.42 14.707 2.507 15.012 2.748 15.146C3.032 15.304 3.336 15.384 3.638 15.384C3.675 15.384 3.71 15.367 3.747 15.365C4.223 17.778 6.13 18.838 7.479 19.159C7.303 19.547 7.184 19.947 7.148 20.351C7.124 20.625 7.327 20.869 7.602 20.893L7.647 20.895C7.903 20.895 8.122 20.7 8.145 20.439C8.253 19.226 9.41 17.959 10.438 17.294C11.402 16.673 12.813 16.542 14.179 16.415C15.504 16.294 16.756 16.178 17.737 15.648ZM30.603 14.144C30.472 14.386 30.562 14.69 30.803 14.821C30.879 14.863 30.962 14.883 31.043 14.883C31.219 14.883 31.39 14.79 31.481 14.624C31.5 14.59 33.323 11.175 29.91 8.88C29.682 8.728 29.371 8.787 29.216 9.016C29.062 9.245 29.123 9.556 29.352 9.71C31.996 11.488 30.661 14.036 30.603 14.144V14.144ZM9.876 6.07C10.032 6.07 10.185 5.998 10.282 5.862C11.732 3.845 13.74 4.535 13.825 4.567C14.084 4.661 14.369 4.529 14.465 4.271C14.561 4.012 14.429 3.725 14.17 3.629C13.21 3.273 10.993 3.161 9.47 5.279C9.309 5.502 9.36 5.815 9.584 5.976C9.673 6.04 9.775 6.07 9.876 6.07V6.07ZM22.948 4.182C25.173 4.001 26.185 5.614 26.231 5.69C26.325 5.848 26.491 5.936 26.662 5.936C26.748 5.936 26.836 5.914 26.915 5.867C27.153 5.727 27.233 5.421 27.094 5.183C27.04 5.092 25.754 2.965 22.87 3.185C22.595 3.206 22.39 3.447 22.411 3.723C22.433 3.998 22.682 4.207 22.948 4.182V4.182ZM32.098 18.793C31.852 18.779 31.581 18.974 31.559 19.25C31.557 19.268 31.398 20.969 29.649 21.544C29.387 21.63 29.244 21.912 29.331 22.175C29.399 22.385 29.596 22.519 29.806 22.519C29.858 22.519 29.91 22.511 29.962 22.494C32.334 21.716 32.548 19.43 32.556 19.333C32.577 19.057 32.373 18.815 32.098 18.793V18.793Z" fill="#EA596E"/>
<path d="M7.347 13.934C7.275 14.201 7.433 14.475 7.7 14.547C7.743 14.559 7.787 14.564 7.83 14.564C8.051 14.564 8.252 14.417 8.312 14.194C8.502 13.483 9.239 13.027 9.964 13.18C10.235 13.235 10.499 13.064 10.556 12.793C10.613 12.523 10.44 12.258 10.169 12.201C9.743 12.111 9.315 12.153 8.921 12.287C7.755 10.293 7.982 8.327 7.985 8.306C8.021 8.033 7.829 7.782 7.556 7.744C7.284 7.711 7.032 7.898 6.994 8.171C6.981 8.268 6.714 10.487 8.057 12.785C7.723 13.086 7.469 13.479 7.347 13.934V13.934ZM18.526 11.464C18.933 11.087 19.586 11.094 19.981 11.479C20.079 11.573 20.204 11.62 20.33 11.62C20.461 11.62 20.591 11.569 20.688 11.468C20.88 11.27 20.876 10.953 20.678 10.761C20.448 10.538 20.173 10.389 19.881 10.296C20.177 9.28 20.06 8.829 19.785 7.984C19.737 7.837 19.684 7.673 19.628 7.486L19.598 7.386C19.234 6.178 18.993 5.381 19.685 4.256C19.83 4.021 19.756 3.713 19.521 3.568C19.29 3.424 18.979 3.495 18.833 3.732C17.905 5.24 18.246 6.369 18.641 7.676L18.671 7.776C18.73 7.97 18.784 8.14 18.834 8.293C19.081 9.054 19.156 9.309 18.854 10.229C18.485 10.298 18.132 10.465 17.844 10.733C17.642 10.921 17.631 11.238 17.819 11.44C18.008 11.642 18.325 11.652 18.526 11.464ZM24.891 8.479C25.182 8.479 25.476 8.418 25.75 8.288C26 8.17 26.107 7.872 25.989 7.622C25.872 7.372 25.57 7.268 25.324 7.383C24.822 7.619 24.203 7.414 23.94 6.926C23.809 6.682 23.504 6.593 23.263 6.721C23.02 6.851 22.928 7.155 23.059 7.398C23.239 7.734 23.507 7.999 23.819 8.183C23.282 9.488 23.587 10.874 23.836 11.609C23.906 11.818 24.101 11.949 24.31 11.949C24.363 11.949 24.416 11.941 24.47 11.923C24.732 11.835 24.872 11.551 24.783 11.29C24.615 10.792 24.289 9.534 24.781 8.464C24.819 8.466 24.854 8.479 24.891 8.479V8.479ZM29.688 17.908C29.669 17.633 29.431 17.416 29.157 17.441C28.143 17.513 27.279 16.744 27.21 15.738C27.19 15.463 26.945 15.258 26.677 15.273C26.402 15.292 26.194 15.531 26.212 15.806C26.253 16.396 26.478 16.928 26.82 17.361C26.016 18.307 24.963 18.576 24.376 18.645C23.857 18.707 23.403 18.654 22.878 18.592C22.397 18.537 21.853 18.474 21.18 18.494L21.175 18.495C21.155 18.209 21.087 17.792 20.87 17.445C20.724 17.212 20.415 17.141 20.181 17.287C19.948 17.433 19.876 17.742 20.023 17.976C20.157 18.191 20.182 18.534 20.182 18.701C19.678 18.882 19.242 19.148 18.848 19.405C18.144 19.863 17.589 20.225 16.754 20.037C15.998 19.864 15.241 19.829 14.599 19.919C14.499 19.668 14.341 19.368 14.097 19.137C13.896 18.947 13.58 18.955 13.39 19.157C13.201 19.357 13.209 19.674 13.41 19.864C13.496 19.945 13.564 20.063 13.619 20.181C12.516 20.635 11.963 21.394 11.937 21.431C11.777 21.655 11.83 21.964 12.052 22.125C12.14 22.188 12.242 22.219 12.344 22.219C12.499 22.219 12.652 22.148 12.75 22.014C12.755 22.006 13.304 21.271 14.387 20.974C14.947 20.82 15.75 20.833 16.533 21.011C16.752 21.061 16.955 21.078 17.152 21.081C17.245 21.299 17.281 21.558 17.286 21.654C17.302 21.92 17.522 22.126 17.785 22.126L17.812 22.125C18.087 22.11 18.298 21.877 18.285 21.602C18.282 21.552 18.262 21.256 18.155 20.916C18.616 20.749 19.017 20.488 19.394 20.243C19.966 19.87 20.507 19.517 21.214 19.494C21.806 19.473 22.294 19.53 22.765 19.585C23.239 19.64 23.705 19.676 24.219 19.646C24.31 19.899 24.303 20.237 24.289 20.35C24.256 20.623 24.449 20.873 24.723 20.909C24.744 20.912 24.765 20.913 24.786 20.913C25.033 20.913 25.248 20.73 25.281 20.478C25.289 20.416 25.34 19.966 25.222 19.497C25.94 19.304 26.83 18.885 27.567 18.026C27.998 18.29 28.501 18.445 29.036 18.445C29.098 18.445 29.161 18.443 29.223 18.439C29.498 18.421 29.706 18.184 29.688 17.908V17.908Z" fill="#EA596E"/>
</svg>
