<?xml version="1.0" encoding="UTF-8" standalone="no"?><!DOCTYPE svg PUBLIC "-//W3C//DTD SVG 1.1//EN" "http://www.w3.org/Graphics/SVG/1.1/DTD/svg11.dtd"><svg width="100%" height="100%" viewBox="0 0 2096 959" version="1.1" xmlns="http://www.w3.org/2000/svg" xmlns:xlink="http://www.w3.org/1999/xlink" xml:space="preserve" xmlns:serif="http://www.serif.com/" style="fill-rule:evenodd;clip-rule:evenodd;stroke-linecap:round;stroke-linejoin:round;stroke-miterlimit:2;"><g><path id="DRD" d="M1320.28,213.64c9.872,29.863 14.808,61.688 14.808,95.47c0,61.046 -17.223,115.551 -51.671,163.516c-34.447,47.965 -85.246,81.976 -152.396,102.034l211.916,363.659l-252.468,-0l-190.987,-346.654l-63.999,-0.101c-9.77,45.495 -25.793,87.823 -48.07,126.99c-39.68,69.766 -95.929,123.836 -168.748,162.207c-72.819,38.372 -157.193,57.558 -253.122,57.558l-344.037,-0l-0,-918.304l976.086,-0l3.068,0.008l-0.003,-0.008l367.68,3.05c96.802,0 181.394,19.186 253.777,57.558c72.383,38.371 128.414,92.223 168.094,161.553c39.68,69.331 59.519,149.345 59.519,240.041c0,89.825 -19.839,169.621 -59.519,239.387c-39.68,69.767 -95.929,123.836 -168.748,162.208c-72.819,38.372 -157.194,54.197 -253.123,54.197l-22.703,0.31l-0,-190.552l8.314,-0c84.592,-0 150.434,-23.11 197.527,-69.331c47.092,-46.22 70.639,-111.626 70.639,-196.219c-0,-84.592 -23.547,-150.434 -70.639,-197.527c-47.093,-47.092 -112.935,-70.638 -197.527,-70.638l-8.314,-0l-0,-0.412l-25.354,-0Zm-969.127,531.076c84.592,0 150.435,-23.11 197.527,-69.33c47.093,-46.221 70.639,-111.627 70.639,-196.219c0,-84.592 -23.546,-150.435 -70.639,-197.527c-47.092,-47.093 -112.935,-70.639 -197.527,-70.639l-105.958,-0l0,533.715l105.958,0Zm494.696,-311.334l138.661,0c40.988,0 71.729,-10.029 92.223,-30.087c20.494,-20.058 30.741,-48.4 30.741,-85.028c0,-34.883 -10.247,-62.354 -30.741,-82.412c-20.494,-20.058 -51.235,-30.087 -92.223,-30.087l-138.661,0l0,227.614Z" style="fill-rule:nonzero;stroke:#000;stroke-width:37.5px;"/><path d="M1976.84,938.319c-27.768,-0 -51.263,-9.612 -70.487,-28.836c-19.224,-19.224 -28.836,-42.719 -28.836,-70.487c0,-27.768 9.612,-51.263 28.836,-70.487c19.224,-19.224 42.719,-28.836 70.487,-28.836c26.7,0 49.394,9.612 68.084,28.836c18.69,19.224 28.035,42.719 28.035,70.487c-0,27.768 -9.345,51.263 -28.035,70.487c-18.69,19.224 -41.384,28.836 -68.084,28.836Z" style="fill-rule:nonzero;stroke:#000;stroke-width:39.01px;stroke-linecap:butt;"/></g></svg>