<svg width="34" height="35" viewBox="0 0 34 35" fill="none" xmlns="http://www.w3.org/2000/svg">
<path d="M23 26.799V24.233C25 22.885 27.08 20.454 27.703 17.337C27.889 17.44 27.909 17.507 28.116 17.507C29.107 17.507 29.825 16.22 29.825 14.634C29.825 13.072 29.002 11.807 28.031 11.769C28.218 11.095 28.324 10.192 28.324 9.034C28.324 5.168 25 0.527 17.541 0.527C10.912 0.527 6.764 5.168 6.764 9.034C6.764 10.157 6.833 11.077 6.952 11.789C6.041 11.926 5.323 13.141 5.323 14.634C5.323 16.221 6.127 17.507 7.119 17.507C7.325 17.507 7.144 17.44 7.328 17.337C7.952 20.453 10 22.885 12 24.232V26.646C7 27.291 0 30.083 0 32.876V33.937C0 35 1.076 35 2.137 35H31.862C32.924 35 34 35 34 33.938V32.877C34 30.262 28 27.652 23 26.799V26.799Z" fill="#226699"/>
</svg>
