<svg width="30" height="45" viewBox="0 0 30 45" fill="none" xmlns="http://www.w3.org/2000/svg">
<path d="M12.9546 34.0909C10.695 34.0909 8.86364 32.2595 8.86364 30V24.5455C8.86364 22.2859 10.695 20.4545 12.9546 20.4545C13.7768 20.4464 21.1364 19.0909 21.1364 13.6364C21.1364 10.9091 18.4091 8.18182 14.3182 8.18182C10.9896 8.18182 8.86364 10.9091 8.86364 12.2727C8.86364 14.5323 7.03228 16.3636 4.77273 16.3636C2.51319 16.3636 0.681824 14.5323 0.681824 12.2727C0.681824 5.62091 6.92728 0 14.3182 0C25.2273 0 29.3182 8.15727 29.3182 15C29.3182 20.6523 26.2132 24.9723 20.5732 27.1636C19.3459 27.6423 18.1323 27.9641 17.0455 28.1823V30C17.0455 32.2595 15.2141 34.0909 12.9546 34.0909Z" fill="#F05050"/>
<path d="M12.9546 45C15.2139 45 17.0455 43.1685 17.0455 40.9091C17.0455 38.6498 15.2139 36.8182 12.9546 36.8182C10.6952 36.8182 8.86364 38.6498 8.86364 40.9091C8.86364 43.1685 10.6952 45 12.9546 45Z" fill="#F05050"/>
</svg>
