<?xml version="1.0" encoding="UTF-8" standalone="no"?>
<!-- Created with Inkscape (http://www.inkscape.org/) -->

<svg
   version="1.1"
   id="svg2"
   xml:space="preserve"
   width="573.82666"
   height="135.38667"
   viewBox="0 0 573.82666 135.38667"
   sodipodi:docname="KUlogo-notower-lines-MET-871.eps"
   xmlns:inkscape="http://www.inkscape.org/namespaces/inkscape"
   xmlns:sodipodi="http://sodipodi.sourceforge.net/DTD/sodipodi-0.dtd"
   xmlns="http://www.w3.org/2000/svg"
   xmlns:svg="http://www.w3.org/2000/svg"><defs
     id="defs6" /><sodipodi:namedview
     id="namedview4"
     pagecolor="#ffffff"
     bordercolor="#666666"
     borderopacity="1.0"
     inkscape:pageshadow="2"
     inkscape:pageopacity="0.0"
     inkscape:pagecheckerboard="0" /><g
     id="g8"
     inkscape:groupmode="layer"
     inkscape:label="ink_ext_XXXXXX"
     transform="matrix(1.3333333,0,0,-1.3333333,0,135.38667)"><g
       id="g10"
       transform="scale(0.1)"><path
         d="M 203.977,148.813 V 57.5391 C 203.977,18.7734 176.109,0 140.773,0 105.434,0 77.5703,18.7734 77.5703,57.5391 V 148.813 H 108.867 V 69.6484 c 0,-24.625 1.211,-47.0312 31.906,-47.0312 30.692,0 31.903,22.4062 31.903,47.0312 v 79.1646 h 31.301 v 0"
         style="fill:#7e6f42;fill-opacity:1;fill-rule:nonzero;stroke:none"
         id="path12" /><path
         d="M 648.023,3.03125 590.473,124.184 590.07,123.773 V 3.03125 H 560.793 V 148.813 h 46.445 l 55.528,-114.6919 0.402,0.4102 V 148.813 h 29.277 V 3.03125 h -44.422 v 0"
         style="fill:#7e6f42;fill-opacity:1;fill-rule:nonzero;stroke:none"
         id="path14" /><path
         d="m 1076.52,3.03125 h -31.3 V 148.813 h 31.3 V 3.03125 v 0"
         style="fill:#7e6f42;fill-opacity:1;fill-rule:nonzero;stroke:none"
         id="path16" /><path
         d="m 1419.2,148.813 h 34.12 l 37.97,-114.9067 h 0.4 l 38.17,114.9067 h 30.89 L 1507.04,3.03125 h -34.13 L 1419.2,148.813 v 0"
         style="fill:#7e6f42;fill-opacity:1;fill-rule:nonzero;stroke:none"
         id="path18" /><path
         d="m 1902.62,148.813 h 97.73 v -24.219 h -66.43 V 90.4492 h 62.19 V 66.2344 h -62.19 V 27.2461 h 68.66 V 3.03125 h -99.96 v 145.78175 0"
         style="fill:#7e6f42;fill-opacity:1;fill-rule:nonzero;stroke:none"
         id="path20" /><path
         d="m 2385.83,86.0195 h 26.25 c 13.74,0.1953 21.82,7.0703 21.82,19.9765 0,12.934 -8.08,18.383 -21.82,18.598 h -26.25 V 86.0195 Z m 0,-82.98825 h -31.28 V 148.813 h 61.99 c 25.04,-0.2 50.68,-8.262 50.68,-37.954 0,-18.9801 -12.32,-31.4996 -30.29,-35.3473 v -0.3945 c 24.02,-2.6328 24.02,-17.3594 26.66,-37.5547 1.4,-9.2969 2.62,-26.4609 8.48,-34.53125 h -34.54 c -2.63,12.91015 -4.04,26.03515 -5.45,39.16015 -0.82,8.082 -2.83,19.1992 -13.12,19.5859 h -33.13 v -58.74605 0"
         style="fill:#7e6f42;fill-opacity:1;fill-rule:nonzero;stroke:none"
         id="path22" /><path
         d="m 2896.93,107.211 c -1.21,14.742 -9.1,22.012 -24.24,22.012 -11.5,0 -23.22,-6.059 -23.22,-18.774 0,-15.7576 14.14,-17.5779 26.66,-20.6013 22.2,-5.6485 54.92,-11.9141 54.92,-41.1954 C 2931.05,12.5195 2899.55,0 2868.26,0 c -33.32,0 -56.96,12.9102 -55.94,49.6719 h 31.89 c -1.21,-16.1524 8.09,-27.0547 24.44,-27.0547 12.52,0 29.08,3.8281 29.08,19.375 0,17.168 -20.8,18.3789 -33.32,21.6055 -20.39,5.0546 -48.26,14.3359 -48.26,40.1913 0,33.32 30.7,48.051 60.58,48.051 28.26,0 50.28,-15.332 50.28,-44.629 h -30.08 v 0"
         style="fill:#7e6f42;fill-opacity:1;fill-rule:nonzero;stroke:none"
         id="path24" /><path
         d="m 3311.89,3.03125 h -31.31 V 148.813 h 31.31 V 3.03125 v 0"
         style="fill:#7e6f42;fill-opacity:1;fill-rule:nonzero;stroke:none"
         id="path26" /><path
         d="m 3654.98,148.813 h 118.12 v -24.219 h -43.42 V 3.03125 h -31.29 V 124.594 h -43.41 v 24.219 0"
         style="fill:#7e6f42;fill-opacity:1;fill-rule:nonzero;stroke:none"
         id="path28" /><path
         d="m 4155.56,50.6875 -49.08,98.1255 h 36.56 l 30.08,-66.8364 30.7,66.8364 h 32.11 L 4186.85,50.6875 V 3.03125 h -31.29 v 47.65625 0"
         style="fill:#7e6f42;fill-opacity:1;fill-rule:nonzero;stroke:none"
         id="path30" /><path
         d="m 1053.26,832.094 c 0,4.234 -3.62,8.277 -11.59,8.277 -21.73,0 -112.49,0 -145.088,0 -7.969,0 -12.703,-4.644 -12.703,-8.887 0,-2.832 0.5,-9.507 9.766,-10.261 6.492,-0.528 15.972,-0.879 21.777,-2.293 23.902,-4.946 29.348,-11.711 30.805,-35.754 1.445,-22.61 1.445,-37.528 1.445,-147.793 v -88.379 c 0,-72.793 -6.719,-125.918 -40.039,-166.223 -26.086,-30.398 -63.731,-49.636 -107.922,-49.636 -41.297,0 -69.688,9.558 -98.055,32.421 -33.129,26.7 -55.472,71.055 -55.472,172.864 v 98.953 c 0,110.265 0,125.566 1.445,148.176 1.441,24.761 5.441,32.605 25.004,35.437 8.691,1.414 13.285,1.113 19.414,2.598 5.512,1.34 6.207,6.172 6.207,9.004 0,4.238 -3.535,9.773 -11.508,9.773 -21.734,0 -132.605,0 -165.203,0 -7.965,0 -11.598,-4.043 -11.598,-8.277 0,-2.832 0.137,-9.903 10.481,-10.852 5.785,-0.527 12.457,-1.355 20.144,-2.832 20.578,-3.945 30.957,-16.726 30.957,-34.648 0,-22.657 1.446,-38.114 1.446,-148.379 V 532.16 c 0,-103.191 27.519,-152.676 63.027,-185.906 51.426,-47.356 124.59,-50.188 149.23,-50.188 42.735,0 97.071,7.071 149.227,52.317 57.949,50.183 66.653,135.008 66.653,211.355 v 75.645 c 0,110.265 -0.16,130.078 1.44,152.676 1.49,20.898 5.75,27.16 23.77,31.671 8.68,2.176 14.97,1.864 20.02,2.247 6.76,0.507 6.92,7.285 6.92,10.117"
         style="fill:#7e6f42;fill-opacity:1;fill-rule:nonzero;stroke:none"
         id="path32" /><path
         d="m 725.449,270.793 c 0,0 -114.867,8.613 -262.019,160.535 L 231.738,675.012 c 18.785,21.66 174.43,168.894 196.797,189.699 40.254,37.234 54.485,48.445 91.153,64.043 17.894,7.793 27.855,7.019 37.867,7.019 15.261,0 19.203,9.68 19.203,14.024 0,4.328 -3.582,13.644 -13.43,13.644 -22.359,0 -154.867,0 -172.758,0 -6.257,0 -10.734,-5.656 -10.734,-9.98 0,-3.469 0.422,-10.266 8.051,-14.356 6.715,-3.605 15.886,-2.042 15.886,-12.414 0,-14.746 -16.425,-31.679 -41.472,-56.804 C 330.098,836.098 186.719,696.035 171.52,679.57 l -8.082,-7.422 0.25,40.098 c 0,135.129 -0.25,145.891 1.539,173.613 1.785,30.305 8.933,45.051 33.093,49.375 10.739,1.731 11.086,2.59 17.344,2.59 8.594,0 12.172,6.602 12.172,14.27 0,5.203 -4.469,11.347 -14.305,11.347 -26.84,0 -158.9607,0 -199.2146,0 C 4.47656,963.441 0,953.324 0,948.117 c 0,-3.465 4.44531,-11.023 12.2813,-11.023 8.0507,0 18.1328,-0.86 25.2968,-2.59 29.5117,-6.082 36.6758,-14.688 38.461,-44.141 1.7929,-27.722 1.7929,-42.988 1.7929,-178.117 V 559.809 c 0,-83.157 0,-140.579 -4.4765,-176.954 -3.5782,-25.121 -8.0508,-44.164 -25.9453,-47.628 -8.0469,-1.739 -18.7813,-3.465 -26.836,-3.465 -5.3594,0 -7.1523,-7.324 -7.1523,-9.914 0,-5.196 4.4726,-13.243 14.3125,-13.243 26.8359,0 158.9566,0 202.7856,0 9.847,0 14.316,8.094 14.316,12.43 0,2.59 -1.785,10.317 -7.16,10.317 -8.043,0 -22.36,1.726 -34.883,3.464 -26.84,3.465 -32.203,22.508 -34.887,47.625 -4.468,36.379 -4.468,94.211 -4.468,177.368 v 73.367 C 202.141,586.699 347.051,414.211 411.344,359.25 485.906,295.52 567.367,213.203 770.441,214.316 c 83.567,0.461 149.051,45.735 184.465,106.157 0,0 -82.234,-77.325 -229.457,-49.68"
         style="fill:#7e6f42;fill-opacity:1;fill-rule:nonzero;stroke:none"
         id="path34" /><path
         d="m 1505.72,749.738 c 0,7.793 2.19,69.461 2.19,90.657 h -405.64 c -19.87,0 -36.29,0.625 -37.74,-3.625 -1.44,-5.657 -15.93,-75.711 -15.93,-82.793 0,-4.239 5.34,-7.481 7.51,-7.481 2.9,0 8.1,0.891 10.28,6.555 0.41,7.547 -1.67,20.476 8,32.586 12.83,16.093 34.08,12.89 79,13.586 l 94.32,1.433 V 510.871 c 0,-67.859 0,-115.098 -3.62,-144.773 -2.89,-20.5 -6.52,-36.067 -21.01,-38.887 -6.52,-1.418 -13.03,-2.832 -19.55,-2.832 -6.8,0 -7.98,-7.863 -7.98,-10 0,-4.238 3.62,-8.508 11.59,-8.508 21.73,0 131.21,0 171.05,0 7.97,0 11.59,5.059 11.59,8.582 0,2.141 -2.3,9.777 -9.53,9.777 -6.52,0 -18.72,1.418 -28.87,2.833 -21.73,2.824 -26.07,18.386 -28.24,38.886 -3.63,29.68 -3.63,77.063 -3.63,144.922 v 289.785 l 77.12,-1.433 c 69.55,-1.399 86.22,-17.668 89.11,-38.868 l 0.72,-7.785 c 0.72,-9.882 7.42,-12.019 11.05,-12.019 2.9,0 8.21,2.832 8.21,9.187"
         style="fill:#7e6f42;fill-opacity:1;fill-rule:nonzero;stroke:none"
         id="path36" /><path
         d="m 2276.03,799.223 c 69.55,-1.399 86.22,-17.668 89.11,-38.868 l 0.72,-7.785 c 0.73,-9.882 7.43,-12.019 11.05,-12.019 2.9,0 8.22,2.832 8.22,9.187 0,7.793 2.19,69.461 2.19,90.657 h -405.65 c -19.86,0 -36.29,0.625 -37.73,-3.625 -1.45,-5.657 -15.93,-75.711 -15.93,-82.793 0,-4.239 5.33,-7.481 7.5,-7.481 2.9,0 8.11,0.891 10.29,6.555 0.41,7.547 -1.67,20.476 7.99,32.586 12.84,16.093 34.09,12.89 79.01,13.586 l 94.31,1.433 V 510.871 c 0,-67.859 0,-115.098 -3.62,-144.773 -2.89,-20.5 -6.51,-36.067 -21,-38.887 -6.53,-1.418 -13.03,-2.832 -19.56,-2.832 -6.79,0 -7.97,-7.863 -7.97,-10 0,-4.238 3.62,-8.508 11.59,-8.508 21.73,0 131.2,0 171.04,0 7.97,0 11.59,5.059 11.59,8.582 0,2.141 -2.3,9.777 -9.52,9.777 -6.52,0 -18.73,1.418 -28.87,2.833 -21.73,2.824 -26.08,18.386 -28.25,38.886 -3.63,29.68 -3.63,77.063 -3.63,144.922 v 289.785 l 77.12,-1.433"
         style="fill:#7e6f42;fill-opacity:1;fill-rule:nonzero;stroke:none"
         id="path38" /><path
         d="m 2840.69,565.773 c 0,-195.437 -128,-230.363 -189.93,-230.363 -123.89,0 -220.14,100.742 -220.14,257.231 0,147.07 85.93,220.933 200.84,220.933 108.75,0 209.23,-86.621 209.23,-247.801 z m -204.37,284.422 c -199.87,0 -285.09,-161.882 -285.09,-276.414 0,-127.234 82.33,-277.812 280.75,-277.812 174.6,0 289.05,130.769 289.05,289.133 0,164.707 -121.69,265.093 -284.71,265.093"
         style="fill:#7e6f42;fill-opacity:1;fill-rule:nonzero;stroke:none"
         id="path40" /><path
         d="m 3648.89,821.059 c 6.53,0 11.52,4.558 11.52,8.796 0,5.606 -4.35,10.54 -11.61,10.54 -37.66,0 -108.37,0 -144.59,0 -10.13,0 -15.23,-3.071 -15.23,-8.672 0,-4.239 4.04,-10.664 11.83,-10.664 5.8,0 17.15,0 25.86,-4.243 4.36,-2.105 8.36,-7.644 8.36,-16.824 0,-8.406 -4.42,-20.554 -10.89,-47.969 -27.46,-95.488 -83.94,-269.89 -102.66,-332.207 h -2.89 l -138.66,384.543 c -8.71,24.024 -14.68,33.204 -19.74,33.204 -4.34,0 -8.91,-3.528 -19.77,-32.512 L 3091.71,421.699 h -1.42 c -10.88,37.473 -78.57,277.309 -89.42,322.551 -7.25,31.121 -12.75,47.363 -13.77,55.613 -1.12,9.114 2.93,14.848 7.3,16.953 8.68,4.243 22.45,4.243 28.25,4.243 6.22,0 10.27,4.89 10.27,9.129 0,2.832 -3.8,10.207 -13.94,10.207 -36.22,0 -133.34,0 -171.02,0 -7.22,0 -11.59,-6.946 -11.59,-10.469 0,-4.238 5.2,-8.867 10.49,-8.867 5.06,0 20.14,-0.657 29.56,-4.2 18.85,-7.05 27.36,-8.285 38.95,-45.734 L 3044.3,351.906 c 14.48,-48.066 22.11,-55.879 29.37,-55.918 6.97,-0.058 15.15,7.774 26.75,37.453 26.08,65.743 118.47,309.082 144.56,376.954 h 1.45 l 135.54,-377.629 c 10.13,-27.571 17.35,-36.758 24.58,-36.758 7.97,0 15.19,8.523 34.01,60.84 27.85,78.015 142.97,420.859 143.4,422.07 11.42,31.965 16.37,31.367 33.82,37.898 9.42,3.547 26.04,4.243 31.11,4.243"
         style="fill:#7e6f42;fill-opacity:1;fill-rule:nonzero;stroke:none"
         id="path42" /><path
         d="m 1920.57,432.504 c -3.62,0 -10.73,-3.586 -12.79,-14.453 -1.86,-9.836 -7.96,-28.985 -14.48,-38.164 -15.21,-21.223 -31.23,-34.114 -107.29,-34.114 l -179.71,1.79 c 110.12,162.605 223.6,330.253 328.65,492.832 0,0 -398.77,0 -399.01,0 0,-21.196 2.28,-83.625 2.28,-91.418 0,-6.36 4.84,-9.192 7.74,-9.192 3.62,0 9.11,2.141 9.83,12.024 l 0.72,7.785 c 2.9,21.199 13.28,39.011 82.82,40.418 14.34,0.996 29.02,1.277 42.81,1.277 h 144.1 c -100.7,-159.754 -225.1,-336.336 -333.04,-495.418 0,0 279.74,0 400.72,0 13.24,0 17.12,2.434 21.49,16.953 5.27,17.434 17.23,66.297 17.23,88.211 0,13.43 -3.13,21.469 -12.07,21.469"
         style="fill:#7e6f42;fill-opacity:1;fill-rule:nonzero;stroke:none"
         id="path44" /><path
         d="m 4288.35,962.152 c -34.92,0 -142.52,0 -180.82,0 -10.22,0 -17.02,-3.886 -17.02,-9.093 0,-3.465 -0.21,-14.668 13.64,-14.668 6.81,0 19.56,-0.86 34.88,-4.325 26.39,-6.933 36.88,-25.976 37.73,-82.296 l 9.07,-399.864 c -27.25,28.594 -362.58,403.66 -414.44,440.84 -70.15,50.285 -176.65,145.444 -415.75,117.704 0,0 -151.99,-20.216 -219.12,-113.622 0,0 137.37,106.232 358.31,54.902 0,0 93.43,-18.32 189.18,-93.417 l -1.79,-412.469 c 0,-78.828 -4.24,-103.957 -25.54,-110.031 -12.75,-4.329 -24.93,-5.176 -31.73,-5.176 -4.27,0 -10.93,-3.125 -10.93,-10.926 0,-6.059 6.06,-12.414 14.57,-12.414 38.31,0 131.8,0 180.33,0 10.2,0 15.87,4.875 15.87,10.066 0,3.469 0,13.274 -10.66,13.274 -7.68,0 -23.31,0.847 -39.49,5.176 -22.98,6.933 -31.49,29.46 -33.2,100.488 l -10.45,378.957 c 2.87,-2.727 5.08,-4.848 7.93,-7.668 0,0 411.07,-443.711 419.68,-451.699 45.13,-45.899 57.44,-54.668 64.25,-54.668 11.23,0 17.82,4.343 17.82,61.504 l 1.71,497.734 c 0,51.973 -0.45,71.047 27.63,77.102 10.23,2.585 16.19,2.585 20.45,2.585 5.93,0 13.2,3.821 13.2,11.165 0,5.203 -5.96,10.839 -15.31,10.839"
         style="fill:#7e6f42;fill-opacity:1;fill-rule:nonzero;stroke:none"
         id="path46" /></g></g></svg>
