<svg width="70" height="50" viewBox="0 0 70 50" fill="none" xmlns="http://www.w3.org/2000/svg">
<path d="M4.61305 15.785L4.60536 15.7811C4.60536 15.7811 0.667297 39.6227 0.667297 43.0596C0.667297 46.5618 3.24595 49.3997 6.42751 49.3997C7.73316 49.3997 8.92361 48.9043 9.8894 48.0979L29.4089 30.9363L4.61305 15.785ZM65.4601 15.785L65.4678 15.7811C65.4678 15.7811 69.4059 39.6227 69.4059 43.0596C69.4059 46.5618 66.8272 49.3997 63.6457 49.3997C62.34 49.3997 61.1496 48.9043 60.1838 48.0979L40.6643 30.9363L65.4601 15.785Z" fill="#31373D"/>
<path d="M50.3972 33.4401C59.4108 33.4401 66.7178 26.1331 66.7178 17.1194C66.7178 8.10581 59.4108 0.798828 50.3972 0.798828C41.3835 0.798828 34.0765 8.10581 34.0765 17.1194C34.0765 26.1331 41.3835 33.4401 50.3972 33.4401Z" fill="#14171A"/>
<path d="M19.676 33.4401C28.6896 33.4401 35.9966 26.1331 35.9966 17.1195C35.9966 8.10586 28.6896 0.798875 19.676 0.798875C10.6624 0.798875 3.35538 8.10586 3.35538 17.1195C3.35538 26.1331 10.6624 33.4401 19.676 33.4401Z" fill="#14171A"/>
<path d="M19.676 0.798875L50.3972 0.798828L50.3972 33.1904H19.676L19.676 0.798875Z" fill="#14171A"/>
<path d="M25.6282 41.6004C30.9304 41.6004 35.2286 37.3022 35.2286 32C35.2286 26.6979 30.9304 22.3997 25.6282 22.3997C20.3261 22.3997 16.0279 26.6979 16.0279 32C16.0279 37.3022 20.3261 41.6004 25.6282 41.6004Z" fill="#14171A"/>
<path d="M44.4449 41.6004C49.7471 41.6004 54.0453 37.3022 54.0453 32C54.0453 26.6979 49.7471 22.3997 44.4449 22.3997C39.1428 22.3997 34.8446 26.6979 34.8446 32C34.8446 37.3022 39.1428 41.6004 44.4449 41.6004Z" fill="#14171A"/>
<path d="M44.4449 37.7603C47.6262 37.7603 50.2051 35.1813 50.2051 32C50.2051 28.8188 47.6262 26.2398 44.4449 26.2398C41.2636 26.2398 38.6847 28.8188 38.6847 32C38.6847 35.1813 41.2636 37.7603 44.4449 37.7603Z" fill="#67757F"/>
<path d="M25.6282 37.7603C28.8095 37.7603 31.3885 35.1813 31.3885 32C31.3885 28.8188 28.8095 26.2398 25.6282 26.2398C22.447 26.2398 19.868 28.8188 19.868 32C19.868 35.1813 22.447 37.7603 25.6282 37.7603Z" fill="#67757F"/>
<path d="M49.9364 11.7145C51.6362 11.7145 53.0142 10.3365 53.0142 8.6366C53.0142 6.93673 51.6362 5.55872 49.9364 5.55872C48.2365 5.55872 46.8585 6.93673 46.8585 8.6366C46.8585 10.3365 48.2365 11.7145 49.9364 11.7145Z" fill="#FFCC4D"/>
<path d="M49.9364 24.1451C51.6362 24.1451 53.0142 22.767 53.0142 21.0672C53.0142 19.3673 51.6362 17.9893 49.9364 17.9893C48.2365 17.9893 46.8585 19.3673 46.8585 21.0672C46.8585 22.767 48.2365 24.1451 49.9364 24.1451Z" fill="#77B255"/>
<path d="M43.7211 17.9298C45.4209 17.9298 46.799 16.5518 46.799 14.8519C46.799 13.152 45.4209 11.774 43.7211 11.774C42.0212 11.774 40.6432 13.152 40.6432 14.8519C40.6432 16.5518 42.0212 17.9298 43.7211 17.9298Z" fill="#50A5E6"/>
<path d="M56.1516 17.9298C57.8515 17.9298 59.2295 16.5518 59.2295 14.8519C59.2295 13.152 57.8515 11.774 56.1516 11.774C54.4518 11.774 53.0737 13.152 53.0737 14.8519C53.0737 16.5518 54.4518 17.9298 56.1516 17.9298Z" fill="#DD2E44"/>
<path d="M21.9282 11.2882V7.12545C21.9282 6.58975 21.4943 6.15582 20.9586 6.15582H17.9671C17.4314 6.15582 16.9975 6.58975 16.9975 7.12545V11.2882L19.4629 13.7555L21.9282 11.2882ZM16.9956 18.258V22.4207C16.9956 22.9564 17.4295 23.3904 17.9652 23.3904H20.9567C21.4924 23.3904 21.9263 22.9564 21.9263 22.4207V18.258L19.4609 15.7907L16.9956 18.258ZM27.1124 12.3058H22.9497L20.4824 14.7731L22.9497 17.2404H27.1124C27.6481 17.2404 28.0821 16.8045 28.0821 16.2708V13.2774C28.0821 12.7417 27.6481 12.3058 27.1124 12.3058ZM15.9779 12.3058H11.8133C11.2776 12.3058 10.8437 12.7417 10.8437 13.2754V16.2669C10.8437 16.8026 11.2776 17.2366 11.8133 17.2366H15.976L18.4433 14.7693L15.9779 12.3058Z" fill="#8899A6"/>
</svg>
