<svg width="45" height="45" viewBox="0 0 45 45" fill="none" xmlns="http://www.w3.org/2000/svg">
<path d="M39.7059 16.875C39.7059 18.4275 38.52 19.6875 37.0588 19.6875H7.94118C6.48 19.6875 5.29412 18.4275 5.29412 16.875V5.62499C5.29412 4.07249 6.48 2.81249 7.94118 2.81249H37.0588C38.52 2.81249 39.7059 4.07249 39.7059 5.62499V16.875Z" fill="#FDCB58"/>
<path d="M42.3529 22.5C42.3529 24.0525 41.1671 25.3125 39.7059 25.3125H5.29412C3.83294 25.3125 2.64706 24.0525 2.64706 22.5V11.25C2.64706 9.69751 3.83294 8.43751 5.29412 8.43751H39.7059C41.1671 8.43751 42.3529 9.69751 42.3529 11.25V22.5Z" fill="#FDD888"/>
<path d="M45 42.1875C45 43.74 43.8141 45 42.3529 45H2.64706C1.18588 45 0 43.74 0 42.1875V16.875C0 15.3225 1.18588 14.0625 2.64706 14.0625H42.3529C43.8141 14.0625 45 15.3225 45 16.875V42.1875Z" fill="#FEE7B8"/>
<path d="M29.1176 0H22.5C21.0388 0 19.8529 1.25859 19.8529 2.8125V4.21875H22.5C23.9612 4.21875 25.1471 5.47875 25.1471 7.03125H29.1176C30.5788 7.03125 31.7647 5.77125 31.7647 4.21875V2.8125C31.7647 1.25859 30.5788 0 29.1176 0Z" fill="#78B159"/>
<path d="M21.1765 5.62498H14.5588C13.0976 5.62498 11.9118 6.88498 11.9118 8.43748V9.84373H14.5588C16.02 9.84373 17.2059 11.1037 17.2059 12.6562H21.1765C22.6376 12.6562 23.8235 11.3962 23.8235 9.84373V8.43748C23.8235 6.88498 22.6376 5.62498 21.1765 5.62498Z" fill="#F18F26"/>
<path d="M15.8824 15.4687C15.8824 17.0212 14.6965 18.2812 13.2353 18.2812H6.61765C5.15647 18.2812 3.97059 17.0212 3.97059 15.4687V14.0625C3.97059 12.51 5.15647 11.25 6.61765 11.25H13.2353C14.6965 11.25 15.8824 12.51 15.8824 14.0625V15.4687Z" fill="#9268CA"/>
</svg>
