<svg width="37" height="36" viewBox="0 0 37 36" fill="none" xmlns="http://www.w3.org/2000/svg">
<path d="M18.9177 0C8.97672 0 0.917725 8.059 0.917725 18C0.917725 27.941 8.97672 36 18.9177 36C28.8587 36 36.9177 27.941 36.9177 18C36.9177 8.059 28.8587 0 18.9177 0ZM2.96772 19H6.95072C7.04272 21.506 7.47272 23.871 8.17972 26H5.07572C3.86872 23.917 3.12572 21.541 2.96772 19V19ZM19.9177 8V2.081C22.6647 2.517 25.0797 4.736 26.7167 8H19.9177ZM27.5687 10C28.3227 12.083 28.7877 14.46 28.8857 17H19.9177V10H27.5687ZM17.9177 2.081V8H11.1187C12.7547 4.736 15.1707 2.517 17.9177 2.081ZM17.9177 10V17H8.94972C9.04772 14.46 9.51272 12.083 10.2667 10H17.9177ZM6.95172 17H2.96772C3.12572 14.46 3.86872 12.083 5.07472 10H8.17872C7.47372 12.129 7.04372 14.495 6.95172 17ZM8.94972 19H17.9177V26H10.2667C9.51272 23.917 9.04772 21.541 8.94972 19ZM17.9177 28V33.919C15.1707 33.482 12.7547 31.264 11.1187 28H17.9177V28ZM19.9177 33.919V28H26.7177C25.0807 31.264 22.6647 33.482 19.9177 33.919ZM19.9177 26V19H28.8867C28.7877 21.541 28.3237 23.917 27.5697 26H19.9177ZM30.8847 19H34.8667C34.7097 21.541 33.9667 23.917 32.7597 26H29.6557C30.3617 23.871 30.7917 21.506 30.8847 19ZM30.8847 17C30.7917 14.495 30.3617 12.129 29.6557 10H32.7597C33.9667 12.083 34.7097 14.46 34.8667 17H30.8847ZM31.3967 8H28.8937C28.1767 6.396 27.2877 4.985 26.2747 3.801C28.2637 4.833 30.0067 6.267 31.3967 8ZM11.5607 3.801C10.5467 4.985 9.65772 6.396 8.94072 8H6.43872C7.82872 6.267 9.57172 4.834 11.5607 3.801ZM6.43872 28H8.94172C9.65772 29.604 10.5467 31.015 11.5607 32.198C9.57172 31.166 7.82872 29.733 6.43872 28ZM26.2747 32.198C27.2887 31.014 28.1767 29.604 28.8937 28H31.3967C30.0067 29.733 28.2637 31.166 26.2747 32.198Z" fill="#3B88C3"/>
</svg>
