<?xml version="1.0" encoding="UTF-8" standalone="no"?><!DOCTYPE svg PUBLIC "-//W3C//DTD SVG 1.1//EN" "http://www.w3.org/Graphics/SVG/1.1/DTD/svg11.dtd"><svg width="100%" height="100%" viewBox="0 0 819 326" version="1.1" xmlns="http://www.w3.org/2000/svg" xmlns:xlink="http://www.w3.org/1999/xlink" xml:space="preserve" xmlns:serif="http://www.serif.com/" style="fill-rule:evenodd;clip-rule:evenodd;stroke-linejoin:round;stroke-miterlimit:2;"><g id="logo_website"><path id="box" d="M250.888,278.216l503.223,-0l0,-230.045l-386.728,-0l23.791,-47.765l410.702,-0l0,325.575l-576.209,-0l25.221,-47.765Z" style="fill:#041934;"/><path id="X" d="M453.371,98.091l30.333,29.963l-35.388,34.957l35.388,34.958l-30.333,29.963l-35.388,-34.957l-35.389,34.957l-30.333,-29.963l35.388,-34.958l-35.388,-34.957l30.333,-29.963l35.389,34.957l35.388,-34.957Z" style="fill:#041934;"/><g id="buttons"><circle id="top" cx="644.616" cy="113.23" r="24.981" style="fill:#041934;"/><circle id="bottom" cx="644.616" cy="213.156" r="24.981" style="fill:#041934;"/><path id="top1" serif:id="top" d="M719.56,163.193c0,13.788 -11.193,24.981 -24.981,24.981c-13.788,0 -24.981,-11.193 -24.981,-24.981c-0,-13.787 11.193,-24.981 24.981,-24.981c13.788,-0 24.981,11.194 24.981,24.981Z" style="fill:#041934;"/><path id="bottom1" serif:id="bottom" d="M619.635,163.193c0,13.788 -11.194,24.981 -24.981,24.981c-13.788,0 -24.982,-11.193 -24.982,-24.981c0,-13.787 11.194,-24.981 24.982,-24.981c13.787,-0 24.981,11.194 24.981,24.981Z" style="fill:#041934;"/></g><g id="double-slash" serif:id="double slash"><path id="slash_R" d="M332.026,0.405l-53.592,-0l-165.197,325.559l53.592,0.017l165.197,-325.576Z" style="fill:#041934;"/><path id="slash_L" d="M219.689,0.405l-53.592,-0l-165.197,325.559l53.592,0.017l165.197,-325.576Z" style="fill:#041934;"/></g><rect id="margin_right" x="801.876" y="0.406" width="17.073" height="325.575" style="fill:#041934;fill-opacity:0;"/></g></svg>