<svg width="30" height="36" viewBox="0 0 30 36" fill="none" xmlns="http://www.w3.org/2000/svg">
<path d="M29.415 9.586L20.415 0.586C20.054 0.225 19.553 0 19 0C17.896 0 17.001 0.896 17 2C17 2.552 17.224 3.053 17.586 3.415L13.727 7.274L22.727 16.274L26.586 12.415C26.948 12.776 27.448 13 28 13C29.104 13 30.001 12.104 30 11C30 10.448 29.776 9.948 29.415 9.586Z" fill="#E1E8ED"/>
<path d="M19 0H4C1.791 0 0 1.791 0 4V32C0 34.209 1.791 36 4 36H26C28.209 36 30 34.209 30 32V11H21C20 11 19 10 19 9V0Z" fill="#CCD6DD"/>
<path d="M19 0H17V9C17 11.209 18.791 13 21 13H30V11H21C20 11 19 10 19 9V0ZM14 8C14 8.552 13.552 9 13 9H5C4.448 9 4 8.552 4 8C4 7.448 4.448 7 5 7H13C13.552 7 14 7.448 14 8ZM14 12C14 12.552 13.552 13 13 13H5C4.448 13 4 12.552 4 12C4 11.448 4.448 11 5 11H13C13.552 11 14 11.448 14 12ZM26 16C26 16.552 25.553 17 25 17H5C4.448 17 4 16.552 4 16C4 15.448 4.448 15 5 15H25C25.553 15 26 15.448 26 16ZM26 20C26 20.553 25.553 21 25 21H5C4.448 21 4 20.553 4 20C4 19.447 4.448 19 5 19H25C25.553 19 26 19.447 26 20ZM26 24C26 24.553 25.553 25 25 25H5C4.448 25 4 24.553 4 24C4 23.447 4.448 23 5 23H25C25.553 23 26 23.447 26 24ZM26 28C26 28.553 25.553 29 25 29H5C4.448 29 4 28.553 4 28C4 27.447 4.448 27 5 27H25C25.553 27 26 27.447 26 28Z" fill="#99AAB5"/>
</svg>
