<svg width="36" height="36" viewBox="0 0 36 36" fill="none" xmlns="http://www.w3.org/2000/svg">
<path d="M36 15.05V32C36 32 36 36 32 36H4C0 36 0 32 0 32V30C0 30 15.958 23.125 36 15.05Z" fill="#E1E8ED"/>
<path d="M12.708 26.202C12.569 26.202 12.431 26.169 12.306 26.102C12.077 25.983 11.914 25.769 11.86 25.517C11.648 24.542 11.506 23.77 11.506 23.166C11.506 22.943 11.591 22.729 11.744 22.568C13.371 20.853 15.433 19.085 16.802 17.96C15.494 15.773 12.439 10.733 11.764 9.641C11.524 9.252 11.626 8.743 11.998 8.477C13.01 7.755 18.83 3.851 19.077 3.685C19.451 3.433 19.954 3.511 20.236 3.861C20.875 4.652 22.585 7.478 24.396 10.47C25.26 11.898 26.108 13.298 26.778 14.373C26.824 14.446 26.858 14.526 26.88 14.61C26.89 14.649 27.909 18.538 27.909 19.457C27.909 19.821 27.681 20.146 27.34 20.272C25.997 20.766 13.169 26.081 13.039 26.134C12.934 26.18 12.821 26.202 12.708 26.202Z" fill="#55ACEE"/>
<path d="M11.75 27.369C11.411 27.369 11.089 27.17 10.949 26.838C10.762 26.396 10.969 25.886 11.411 25.699L18.619 22.657C19.064 22.473 19.571 22.678 19.757 23.12C19.943 23.562 19.736 24.072 19.294 24.259L12.086 27.301C11.977 27.347 11.863 27.369 11.75 27.369V27.369ZM23.834 22.286C23.499 22.286 23.18 22.091 23.037 21.764C22.846 21.323 23.048 20.812 23.487 20.62L28.278 18.537C28.717 18.347 29.229 18.546 29.422 18.987C29.613 19.428 29.411 19.939 28.972 20.131L24.181 22.215C24.067 22.263 23.95 22.286 23.834 22.286V22.286Z" fill="#226699"/>
<path d="M5.594 31.657C5.386 31.657 5.183 31.643 4.984 31.615C3.72 31.434 2.725 30.684 2.106 29.447C1.859 28.953 2.059 28.352 2.553 28.105C3.048 27.859 3.648 28.058 3.895 28.552C4.527 29.818 5.759 30.002 7.553 29.105C8.783 28.49 15.21 25.802 22.015 22.957C26.411 21.119 30.808 19.28 33.607 18.081C34.11 17.862 34.702 18.098 34.919 18.606C35.137 19.113 34.902 19.701 34.394 19.919C31.592 21.12 27.189 22.961 22.786 24.803C16.312 27.51 9.617 30.31 8.447 30.895C7.432 31.402 6.475 31.657 5.594 31.657V31.657Z" fill="#BE1931"/>
<path d="M26.882 14.611C26.86 14.527 26.825 14.447 26.78 14.374C26.11 13.299 25.262 11.899 24.398 10.471C22.598 7.498 20.9 4.692 20.252 3.882C20.245 3.984 20.241 4.084 20.237 4.179C20.186 5.299 20.118 6.833 17.238 8.877C16.372 9.454 16.556 10.35 18.277 13.92C19.177 15.787 20.27 17.844 20.766 18.679C20.95 18.989 21.28 19.169 21.625 19.169C21.725 19.169 21.826 19.153 21.925 19.122C23.256 18.704 25.085 17.986 26.699 17.352L27.479 17.047C27.2 15.826 26.887 14.633 26.882 14.611V14.611Z" fill="#3B88C3"/>
<path d="M16.69 14.529C16.406 14.529 16.128 14.39 15.962 14.135C15.7 13.733 15.813 13.195 16.215 12.933L18.713 11.304C19.116 11.041 19.652 11.156 19.915 11.557C20.177 11.959 20.063 12.497 19.662 12.759L17.165 14.388C17.017 14.483 16.853 14.529 16.69 14.529V14.529ZM18.679 17.605C18.259 17.605 17.89 17.3 17.822 16.872C17.747 16.398 18.07 15.953 18.544 15.878L21.511 15.408C21.988 15.333 22.429 15.656 22.505 16.13C22.579 16.604 22.256 17.048 21.782 17.124L18.815 17.594C18.77 17.602 18.724 17.605 18.679 17.605V17.605ZM19.541 22.077C19.403 22.077 19.263 22.044 19.133 21.974L17.402 21.049C16.979 20.822 16.819 20.296 17.045 19.873C17.271 19.45 17.795 19.29 18.22 19.516L19.951 20.441C20.374 20.668 20.534 21.194 20.308 21.617C20.151 21.91 19.852 22.077 19.541 22.077Z" fill="#226699"/>
<path d="M23.543 5.535C23.239 5.535 22.944 5.376 22.785 5.093C22.55 4.675 22.698 4.145 23.116 3.91L28.741 0.743C29.159 0.507 29.689 0.656 29.924 1.074C30.159 1.492 30.011 2.022 29.593 2.257L23.968 5.423C23.833 5.5 23.688 5.535 23.543 5.535ZM26.043 9.244C25.739 9.244 25.444 9.085 25.285 8.801C25.05 8.383 25.198 7.853 25.616 7.618L28.949 5.743C29.367 5.508 29.896 5.656 30.132 6.075C30.367 6.493 30.219 7.023 29.801 7.258L26.468 9.133C26.333 9.208 26.187 9.244 26.043 9.244V9.244ZM28.043 13.244C27.735 13.244 27.438 13.081 27.28 12.792C27.05 12.371 27.204 11.843 27.625 11.613L29.833 10.405C30.252 10.174 30.782 10.329 31.012 10.75C31.243 11.171 31.088 11.699 30.667 11.929L28.459 13.137C28.327 13.21 28.184 13.244 28.043 13.244V13.244Z" fill="#BBDDF5"/>
</svg>
