<svg width="72" height="70" viewBox="0 0 72 70" fill="none" xmlns="http://www.w3.org/2000/svg">
<path d="M9.72679 17.4749C11.6077 16.2139 14.4431 16.4558 16.1319 17.7935L14.195 15.0931C12.6362 12.9608 13.1945 10.6538 15.4196 9.15681C17.6447 7.66554 23.9497 11.6749 23.9497 11.6749C22.377 9.52147 22.6711 6.79227 24.9162 5.28181C27.1613 3.77711 30.2588 4.29723 31.8316 6.45448L52.6818 34.7061L50.0245 59.4166L27.8476 51.6589L8.50419 24.1501C6.91742 21.9833 7.46568 18.995 9.72679 17.4749Z" fill="#EF9645"/>
<path d="M5.39263 33.1918C5.39263 33.1918 3.12753 30.025 6.43114 27.8543C9.73075 25.6836 11.9939 28.8485 11.9939 28.8485L22.501 43.5462C22.8632 42.9666 23.2594 42.3946 23.7016 41.8304L9.11845 21.4343C9.11845 21.4343 6.85535 18.2695 10.157 16.0988C13.4566 13.9281 15.7197 17.093 15.7197 17.093L29.4364 36.2799C29.9466 35.8806 30.4689 35.4795 31.0071 35.0861L15.1054 12.8399C15.1054 12.8399 12.8423 9.67501 16.1439 7.50432C19.4435 5.33364 21.7066 8.4985 21.7066 8.4985L37.6084 30.7409C38.1926 30.3973 38.7709 30.0998 39.3512 29.7851L24.488 8.99559C24.488 8.99559 22.2249 5.83073 25.5245 3.66004C28.8241 1.48935 31.0872 4.65422 31.0872 4.65422L49.192 29.9808C39.2912 36.4948 38.3487 48.7493 44.0055 56.6624C45.136 58.2458 46.7868 57.1614 46.7868 57.1614C39.9975 47.663 42.0705 36.99 51.9734 30.4779L49.054 16.4634C49.054 16.4634 47.9634 12.7708 51.8113 11.7229C55.6612 10.6769 56.7537 14.3695 56.7537 14.3695L60.1254 23.9735C61.462 27.7813 62.8847 31.5757 64.7676 35.1648C70.0842 45.2985 66.9087 57.8927 56.8838 64.4892C45.9484 71.6807 30.9991 69.0071 23.4995 58.5203L5.39263 33.1918Z" fill="#FFDC5D"/>
<path d="M24.0118 61.4165C16.0078 61.4165 7.9199 53.6588 7.9199 45.9817C7.9199 44.9204 7.1095 44.0625 6.00296 44.0625C4.89642 44.0625 3.91795 44.9204 3.91795 45.9817C3.91795 57.4973 12.0059 65.255 24.0118 65.255C25.1183 65.255 26.0127 64.3165 26.0127 63.2551C26.0127 62.1938 25.1183 61.4165 24.0118 61.4165Z" fill="#5DADEC"/>
<path d="M14.0068 65.1744C8.00391 65.1744 4.00195 61.3358 4.00195 55.5781C4.00195 54.5167 3.10752 53.6588 2.00098 53.6588C0.894437 53.6588 0 54.5167 0 55.5781C0 63.2551 6.00293 69.0129 14.0068 69.0129C15.1134 69.0129 16.0078 68.155 16.0078 67.0936C16.0078 66.0323 15.1134 65.1744 14.0068 65.1744ZM48.0234 3.75792C46.9189 3.75792 46.0225 4.61775 46.0225 5.67718C46.0225 6.73662 46.9189 7.59645 48.0234 7.59645C56.0274 7.59645 64.0313 14.4847 64.0313 22.9506C64.0313 24.01 64.9277 24.8698 66.0322 24.8698C67.1368 24.8698 68.0332 24.01 68.0332 22.9506C68.0332 12.3677 60.0293 3.75792 48.0234 3.75792Z" fill="#5DADEC"/>
<path d="M58.0283 0C56.9238 0 56.0273 0.779221 56.0273 1.83865C56.0273 2.89809 56.9238 3.83853 58.0283 3.83853C64.0313 3.83853 67.9492 8.10889 67.9492 13.3542C67.9492 14.4137 68.9276 15.2735 70.0342 15.2735C71.1407 15.2735 71.9511 14.4137 71.9511 13.3542C71.9511 5.99002 66.0322 0 58.0283 0Z" fill="#5DADEC"/>
</svg>
