<svg width="37" height="31" viewBox="0 0 37 31" fill="none" xmlns="http://www.w3.org/2000/svg">
<path d="M18.9177 0C8.97672 0 0.917725 6.908 0.917725 15.428C0.917725 16.494 1.04372 17.535 1.28472 18.54C3.06372 21.601 4.29472 19.669 9.91772 16.857C15.6447 13.993 9.91772 20.857 7.91772 24.857C7.30272 26.087 7.63572 27.128 8.47772 27.981C11.4237 29.785 15.0217 30.857 18.9177 30.857C28.8587 30.857 36.9177 23.95 36.9177 15.428C36.9177 6.908 28.8587 0 18.9177 0V0ZM21.7667 24.447C21.3717 25.793 19.3067 26.371 17.1537 25.738C15.0007 25.106 13.5757 23.504 13.9707 22.157C14.3657 20.811 16.4307 20.233 18.5837 20.867C20.7367 21.498 22.1617 23.1 21.7667 24.447V24.447Z" fill="#D99E82"/>
<path d="M10.9177 10.8571C12.5746 10.8571 13.9177 9.51391 13.9177 7.85706C13.9177 6.2002 12.5746 4.85706 10.9177 4.85706C9.26087 4.85706 7.91772 6.2002 7.91772 7.85706C7.91772 9.51391 9.26087 10.8571 10.9177 10.8571Z" fill="#5C913B"/>
<path d="M20.9177 8.85706C22.5746 8.85706 23.9177 7.51391 23.9177 5.85706C23.9177 4.2002 22.5746 2.85706 20.9177 2.85706C19.2609 2.85706 17.9177 4.2002 17.9177 5.85706C17.9177 7.51391 19.2609 8.85706 20.9177 8.85706Z" fill="#226699"/>
<path d="M29.9177 14.8571C31.5746 14.8571 32.9177 13.5139 32.9177 11.8571C32.9177 10.2002 31.5746 8.85706 29.9177 8.85706C28.2609 8.85706 26.9177 10.2002 26.9177 11.8571C26.9177 13.5139 28.2609 14.8571 29.9177 14.8571Z" fill="#DD2E44"/>
<path d="M28.9177 23.8571C30.5746 23.8571 31.9177 22.5139 31.9177 20.8571C31.9177 19.2002 30.5746 17.8571 28.9177 17.8571C27.2609 17.8571 25.9177 19.2002 25.9177 20.8571C25.9177 22.5139 27.2609 23.8571 28.9177 23.8571Z" fill="#FFCC4D"/>
</svg>
