<svg width="36" height="36" viewBox="0 0 36 36" fill="none" xmlns="http://www.w3.org/2000/svg">
<path d="M36 18C36 27.941 27.941 36 18 36C8.059 36 0 27.941 0 18C0 8.059 8.059 0 18 0C27.941 0 36 8.059 36 18ZM18 15C16.343 15 15 16.343 15 18C15 19.657 16.343 21 18 21C19.657 21 21 19.657 21 18C21 16.343 19.657 15 18 15Z" fill="#FFD983"/>
<path d="M13.288 17.476C13.41 16.372 13.886 15.375 14.631 14.63L6.686 6.686C4.182 9.19 2.51 12.521 2.102 16.233L13.288 17.476ZM22.713 18.524C22.591 19.628 22.115 20.625 21.37 21.37L29.314 29.314C31.818 26.81 33.49 23.479 33.898 19.767L22.713 18.524V18.524Z" fill="#FFAC33"/>
<path d="M18.527 22.712L19.778 33.895C23.485 33.485 26.812 31.814 29.314 29.313L21.37 21.369C20.625 22.113 19.629 22.589 18.527 22.712V22.712ZM17.504 13.285L16.325 2.089C12.576 2.479 9.211 4.162 6.686 6.687L14.63 14.631C15.382 13.88 16.389 13.402 17.504 13.285V13.285Z" fill="#FFE8B6"/>
</svg>
